<svg xmlns:dc="http://purl.org/dc/elements/1.1/" xmlns:cc="http://creativecommons.org/ns#" xmlns:rdf="http://www.w3.org/1999/02/22-rdf-syntax-ns#" xmlns:svg="http://www.w3.org/2000/svg" xmlns="http://www.w3.org/2000/svg" xmlns:sodipodi="http://sodipodi.sourceforge.net/DTD/sodipodi-0.dtd" xmlns:inkscape="http://www.inkscape.org/namespaces/inkscape" viewBox="0 0 12.7 15.875" version="1.1" x="0px" y="0px"><g transform="translate(0,-284.29999)"><g transform="translate(4623.4303,-288.98217)" style="" fill="#000000"><path d="m -4611.7654,574.2325 -2.2548,1.78106 a 14.50918,14.50918 0 0 0 -2.1403,2.08174 l 0.5124,0.56914 a 14.50918,14.50918 0 0 0 2.2936,-1.91164 l 2.0063,-2.05725 a 0.31224403,0.31224403 0 0 0 -0.4172,-0.46305 z" style="" fill="#000000" stroke="none"/><g style="" fill="#000000"><path style="" d="m -17454.564,1100.9805 a 17.950047,17.950047 0 1 0 7.668,34.2402 3.6886608,3.6886608 0 0 0 -1.319,-7.0293 3.1144252,3.1144252 0 0 1 0.197,-6.2226 h 1.952 a 8.1495488,8.1495488 0 0 0 6.953,-12.3985 17.950047,17.950047 0 0 0 -0.215,-0.3437 55.603135,55.603135 0 0 1 -5.215,3.9687 0.75006545,0.75006545 0 0 1 -0.496,0.8457 5.5108984,5.5108984 0 0 0 -3.225,2.9004 1.02563,1.02563 0 0 1 -0.972,0.5938 3.5057103,3.5057103 0 0 1 -0.385,1.8867 6.812655,6.812655 0 0 1 -8.033,3.373 0.65821076,0.65821076 0 0 1 -0.325,-1.039 3.9391918,3.9391918 0 0 0 0.852,-2.2793 4.915517,4.915517 0 0 1 3.127,-4.9414 v 0 a 3.5057103,3.5057103 0 0 1 1.514,-0.2305 1.02563,1.02563 0 0 1 0.722,-1.0273 5.5108984,5.5108984 0 0 0 3.377,-2.9551 0.75006545,0.75006545 0 0 1 0.891,-0.4043 55.603135,55.603135 0 0 1 4.525,-4.8047 17.950047,17.950047 0 0 0 -11.593,-4.1347 z m 1.21,2.3398 a 3.7510096,3.7510096 0 0 1 3.821,3.7891 3.7510096,3.7510096 0 1 1 -7.502,0 3.7510096,3.7510096 0 0 1 3.681,-3.7891 z m -9.435,3.3125 a 3.7503209,3.7503209 0 0 1 3.789,3.8203 3.7503209,3.7503209 0 1 1 -7.498,0 3.7503209,3.7503209 0 0 1 3.709,-3.8203 z m -3.592,9.4707 a 3.7511811,3.7511811 0 0 1 3.861,3.75 3.7511811,3.7511811 0 1 1 -7.501,0 3.7511811,3.7511811 0 0 1 3.64,-3.75 z m 4.996,8.6797 a 3.7503209,3.7503209 0 0 1 3.801,3.8086 3.7503212,3.7503212 0 1 1 -7.5,0 3.7503209,3.7503209 0 0 1 3.699,-3.8086 z" transform="matrix(0.26458333,0,0,0.26458333,0,284.29998)" fill="#000000" stroke="none"/><path style="" d="m -4617.0585,580.38686 a 0.72506889,0.72506889 0 0 0 -0.9054,-1.01038 1.0980802,1.0980802 0 0 0 -0.6978,1.11446 1.2447281,1.2447281 0 0 1 -0.2444,0.69997 1.6000314,1.6000314 0 0 0 1.8476,-0.80405 z" fill="#000000" stroke="none"/><path style="" d="m -4616.7036,579.73902 a 1.6605755,1.6605755 0 0 1 0.9657,-0.87221 l -0.6335,-0.70285 a 1.6605755,1.6605755 0 0 1 -1.0146,0.8848 0.06888097,0.06888097 0 0 0 -0.01,0.13065 0.92755253,0.92755253 0 0 1 0.5585,0.55434 0.06888097,0.06888097 0 0 0 0.1272,0.006 z" fill="#000000" stroke="none"/></g></g></g><text x="0" y="27.7" fill="#000000" font-size="5px" font-weight="bold" font-family="'Helvetica Neue', Helvetica, Arial-Unicode, Arial, Sans-serif">Created by Phạm Thanh Lộc</text><text x="0" y="32.7" fill="#000000" font-size="5px" font-weight="bold" font-family="'Helvetica Neue', Helvetica, Arial-Unicode, Arial, Sans-serif">from the Noun Project</text></svg>